<svg width="55" height="55" viewBox="0 0 55 55" fill="none" xmlns="http://www.w3.org/2000/svg">
<path d="M45.8333 45.8333V2.29167C45.8333 1.68388 45.5919 1.10098 45.1621 0.671214C44.7323 0.241443 44.1495 0 43.5417 0H2.29167C1.68388 0 1.10098 0.241443 0.671214 0.671214C0.241443 1.10098 0 1.68388 0 2.29167V45.8333C0 46.4411 0.241443 47.024 0.671214 47.4538C1.10098 47.8836 1.68388 48.125 2.29167 48.125H43.5417C44.1495 48.125 44.7323 47.8836 45.1621 47.4538C45.5919 47.024 45.8333 46.4411 45.8333 45.8333ZM2.29167 2.29167H43.5417V31.6135L36.3344 24.4062C36.1197 24.1928 35.8293 24.073 35.5266 24.073C35.2238 24.073 34.9334 24.1928 34.7187 24.4062L27.5 31.6135L19.2385 23.3521C19.0239 23.1387 18.7334 23.0189 18.4307 23.0189C18.128 23.0189 17.8376 23.1387 17.6229 23.3521L2.29167 38.6604V2.29167ZM2.29167 45.8333V41.9031L18.425 25.7698L38.4885 45.8333H2.29167ZM29.1156 33.2292L35.5208 26.824L43.5417 34.8448V45.8333H41.7198L29.1156 33.2292Z" fill="black"/>
<path d="M52.7083 6.875H48.125V9.16667H52.7083V52.7083H11.4583V50.4167H9.16667V52.7083C9.16667 53.3161 9.40811 53.899 9.83788 54.3288C10.2677 54.7586 10.8505 55 11.4583 55H52.7083C53.3161 55 53.899 54.7586 54.3288 54.3288C54.7586 53.899 55 53.3161 55 52.7083V9.16667C55 8.55888 54.7586 7.97598 54.3288 7.54621C53.899 7.11644 53.3161 6.875 52.7083 6.875Z" fill="black"/>
<path d="M25.2083 20.625C26.5681 20.625 27.8973 20.2218 29.0279 19.4664C30.1585 18.7109 31.0397 17.6372 31.56 16.3809C32.0804 15.1247 32.2165 13.7424 31.9512 12.4088C31.686 11.0751 31.0312 9.85013 30.0697 8.88864C29.1082 7.92715 27.8832 7.27237 26.5496 7.0071C25.216 6.74183 23.8336 6.87798 22.5774 7.39833C21.3211 7.91868 20.2474 8.79987 19.492 9.93045C18.7365 11.061 18.3333 12.3903 18.3333 13.75C18.3333 15.5734 19.0577 17.322 20.347 18.6114C21.6363 19.9007 23.385 20.625 25.2083 20.625ZM25.2083 9.16667C26.1148 9.16667 27.001 9.43547 27.7547 9.9391C28.5084 10.4427 29.0959 11.1585 29.4428 11.996C29.7897 12.8335 29.8804 13.7551 29.7036 14.6442C29.5268 15.5332 29.0902 16.3499 28.4492 16.9909C27.8082 17.6319 26.9916 18.0684 26.1025 18.2453C25.2134 18.4221 24.2919 18.3313 23.4544 17.9844C22.6169 17.6375 21.9011 17.0501 21.3974 16.2964C20.8938 15.5426 20.625 14.6565 20.625 13.75C20.625 12.5344 21.1079 11.3686 21.9674 10.5091C22.827 9.64955 23.9928 9.16667 25.2083 9.16667Z" fill="black"/>
</svg>
