<svg width="59" height="51" viewBox="0 0 59 51" fill="none" xmlns="http://www.w3.org/2000/svg">
<path d="M52.6296 16.111V48.2028H46.6307V19.2768H43.8498V48.2028H37.8728V23.3967H35.0755V48.2028H27.1043V51H59V48.2028H55.4105V16.111H52.6296Z" fill="black"/>
<path d="M44.0356 0V2.79177H49.204L40.7192 11.346L35.9442 6.54305L25.2139 18.0137L24.6239 18.6425C22.1312 17.0455 19.1758 16.111 16.0025 16.111C7.17468 16.111 0 23.2813 0 32.0918C0 40.9023 7.17468 48.0781 16.0025 48.0781C24.8303 48.0781 32.0214 40.9023 32.0214 32.0918C32.0214 27.4569 30.0197 23.2897 26.8475 20.3664L36.0261 10.5599L40.7192 15.2816L51.1381 4.77583V9.93654H53.9354V0H44.0356ZM16.0025 18.9027C23.3223 18.9027 29.2405 24.7851 29.2405 32.0918C29.2405 39.3985 23.3223 45.2863 16.0025 45.2863C8.6827 45.2863 2.78091 39.3985 2.78091 32.0918C2.78091 24.7851 8.6827 18.9027 16.0025 18.9027Z" fill="black"/>
<path d="M14.6039 23.4238V25.6355H11.1018V33.4796H18.1169V35.7618H11.1018V38.5536H14.6039V40.7653H17.4121V38.5536H20.8978V30.6878H13.9045V28.4273H20.8978V25.6355H17.4121V23.4238H14.6039Z" fill="black"/>
</svg>
