<svg width="61" height="45" viewBox="0 0 61 45" fill="none" xmlns="http://www.w3.org/2000/svg">
<path fill-rule="evenodd" clip-rule="evenodd" d="M59.6739 39.7059H1.32609C0.592761 39.7059 0 39.1143 0 38.3824V1.32353C0 0.592941 0.592761 0 1.32609 0H59.6739C60.4072 0 61 0.592941 61 1.32353V38.3824C61 39.1143 60.4072 39.7059 59.6739 39.7059ZM58.3478 2.64706H2.65217V37.0588H58.3478V2.64706ZM26.5217 11.9118C26.8055 11.9118 27.0522 12.0203 27.2683 12.1712L37.5733 18.6194C38.0852 18.8007 38.4565 19.2785 38.4565 19.8529C38.4565 20.2831 38.2377 20.6484 37.9195 20.8893L27.3452 27.4818C27.1172 27.6671 26.8373 27.7941 26.5217 27.7941C25.7884 27.7941 25.1957 27.2025 25.1957 26.4706V13.2353C25.1957 12.5047 25.7884 11.9118 26.5217 11.9118ZM18.5652 42.3529H42.4348C43.1681 42.3529 43.7609 42.9446 43.7609 43.6765C43.7609 44.4084 43.1681 45 42.4348 45H18.5652C17.8319 45 17.2391 44.4084 17.2391 43.6765C17.2391 42.9446 17.8319 42.3529 18.5652 42.3529Z" fill="black"/>
</svg>
