<svg width="32" height="45" viewBox="0 0 32 45" fill="none" xmlns="http://www.w3.org/2000/svg">
<path d="M6 44.477C2.691 44.477 0 41.786 0 38.477C0 35.168 2.691 32.477 6 32.477H12V38.477C12 41.673 9.196 44.477 6 44.477ZM6 34.477C3.794 34.477 2 36.271 2 38.477C2 40.683 3.794 42.477 6 42.477C8.289 42.477 10 40.365 10 38.477V34.477H6Z" fill="black"/>
<path d="M26 38.477C22.691 38.477 20 35.786 20 32.477C20 29.168 22.691 26.477 26 26.477H32V32.477C32 35.673 29.196 38.477 26 38.477ZM26 28.477C23.794 28.477 22 30.271 22 32.477C22 34.683 23.794 36.477 26 36.477C28.289 36.477 30 34.365 30 32.477V28.477H26Z" fill="black"/>
<path d="M12 33.477H10V8.8L32 0V27.477H30V2.954L12 10.154V33.477Z" fill="black"/>
<path d="M31.3736 9.40915L30.6314 7.55195L10.6284 15.5458L11.3706 17.403L31.3736 9.40915Z" fill="black"/>
</svg>
