<svg width="60" height="55" viewBox="0 0 60 55" fill="none" xmlns="http://www.w3.org/2000/svg">
<path d="M13 5.68966C13.5523 5.68966 14 5.2651 14 4.74138C14 4.21766 13.5523 3.7931 13 3.7931C12.4477 3.7931 12 4.21766 12 4.74138C12 5.2651 12.4477 5.68966 13 5.68966Z" fill="#263238"/>
<path d="M9 5.68966C9.55228 5.68966 10 5.2651 10 4.74138C10 4.21766 9.55228 3.7931 9 3.7931C8.44771 3.7931 8 4.21766 8 4.74138C8 5.2651 8.44771 5.68966 9 5.68966Z" fill="#263238"/>
<path d="M5 5.68966C5.55228 5.68966 6 5.2651 6 4.74138C6 4.21766 5.55228 3.7931 5 3.7931C4.44772 3.7931 4 4.21766 4 4.74138C4 5.2651 4.44772 5.68966 5 5.68966Z" fill="#263238"/>
<path d="M59 9.48276H1C0.448 9.48276 0 9.05793 0 8.53448C0 8.01103 0.448 7.58621 1 7.58621H59C59.552 7.58621 60 8.01103 60 8.53448C60 9.05793 59.552 9.48276 59 9.48276Z" fill="#263238"/>
<path d="M1 37.931C0.448 37.931 0 37.5062 0 36.9828V2.84483C0 1.27638 1.346 0 3 0H57C58.654 0 60 1.27638 60 2.84483V19.9138C60 20.4372 59.552 20.8621 59 20.8621C58.448 20.8621 58 20.4372 58 19.9138V2.84483C58 2.32328 57.552 1.89655 57 1.89655H3C2.448 1.89655 2 2.32328 2 2.84483V36.9828C2 37.5062 1.552 37.931 1 37.931Z" fill="#263238"/>
<path d="M42 55H19C18.448 55 18 54.5752 18 54.0517C18 53.5283 18.448 53.1034 19 53.1034H21C22.654 53.1034 24 51.8271 24 50.2586V48.3621C24 47.8386 24.448 47.4138 25 47.4138C25.552 47.4138 26 47.8386 26 48.3621V50.2586C26 51.3264 25.626 52.3107 24.998 53.1034H35.002C34.374 52.3107 34 51.3264 34 50.2586V44.569C34 44.0455 34.448 43.6207 35 43.6207C35.552 43.6207 36 44.0455 36 44.569V50.2586C36 51.8271 37.346 53.1034 39 53.1034H42C42.552 53.1034 43 53.5283 43 54.0517C43 54.5752 42.552 55 42 55Z" fill="#263238"/>
<path d="M35 45.5172H3C1.346 45.5172 0 44.2409 0 42.6724V36.9828C0 36.4593 0.448 36.0345 1 36.0345H29C29.552 36.0345 30 36.4593 30 36.9828C30 37.5062 29.552 37.931 29 37.931H2V42.6724C2 43.194 2.448 43.6207 3 43.6207H35C35.552 43.6207 36 44.0455 36 44.569C36 45.0924 35.552 45.5172 35 45.5172Z" fill="#263238"/>
<path d="M35 22.7586H33C32.448 22.7586 32 22.3338 32 21.8103C32 21.2869 32.448 20.8621 33 20.8621H35C35.552 20.8621 36 21.2869 36 21.8103C36 22.3338 35.552 22.7586 35 22.7586Z" fill="#263238"/>
<path d="M53 15.1724H33C32.448 15.1724 32 14.7476 32 14.2241C32 13.7007 32.448 13.2759 33 13.2759H53C53.552 13.2759 54 13.7007 54 14.2241C54 14.7476 53.552 15.1724 53 15.1724Z" fill="#263238"/>
<path d="M53 18.9655H33C32.448 18.9655 32 18.5407 32 18.0172C32 17.4938 32.448 17.069 33 17.069H53C53.552 17.069 54 17.4938 54 18.0172C54 18.5407 53.552 18.9655 53 18.9655Z" fill="#263238"/>
<path d="M13 22.7586H7C6.448 22.7586 6 22.3338 6 21.8103C6 21.2869 6.448 20.8621 7 20.8621H13C13.552 20.8621 14 21.2869 14 21.8103C14 22.3338 13.552 22.7586 13 22.7586Z" fill="#263238"/>
<path d="M27 15.1724H7C6.448 15.1724 6 14.7476 6 14.2241C6 13.7007 6.448 13.2759 7 13.2759H27C27.552 13.2759 28 13.7007 28 14.2241C28 14.7476 27.552 15.1724 27 15.1724Z" fill="#263238"/>
<path d="M27 18.9655H7C6.448 18.9655 6 18.5407 6 18.0172C6 17.4938 6.448 17.069 7 17.069H27C27.552 17.069 28 17.4938 28 18.0172C28 18.5407 27.552 18.9655 27 18.9655Z" fill="#263238"/>
<path d="M46 47.4138C38.28 47.4138 32 41.4567 32 34.1379C32 26.8191 38.28 20.8621 46 20.8621C48.704 20.8621 51.326 21.5941 53.584 22.9767C54.048 23.2612 54.18 23.8472 53.88 24.2872C53.58 24.7234 52.964 24.8562 52.498 24.5679C50.566 23.3845 48.318 22.7586 46 22.7586C39.382 22.7586 34 27.8622 34 34.1379C34 40.4136 39.382 45.5172 46 45.5172C52.618 45.5172 58 40.4136 58 34.1379C58 32.9203 57.798 31.7236 57.402 30.5781C57.23 30.0793 57.516 29.5445 58.04 29.3814C58.564 29.2145 59.13 29.4895 59.302 29.9845C59.764 31.3234 60 32.7193 60 34.1379C60 41.4567 53.72 47.4138 46 47.4138Z" fill="#263238"/>
<path d="M45 39.2567C44.992 39.2567 44.984 39.2567 44.976 39.2567C44.686 39.2491 44.416 39.1259 44.23 38.9153L39.23 33.2257C38.878 32.8217 38.936 32.2243 39.358 31.8886C39.784 31.5548 40.412 31.6098 40.768 32.01L45.034 36.8671L57.464 23.8472C57.84 23.4603 58.472 23.4376 58.876 23.7884C59.282 24.1431 59.31 24.7424 58.936 25.1293L45.736 38.9495C45.546 39.1467 45.282 39.2567 45 39.2567Z" fill="#263238"/>
</svg>
