<svg width="161" height="34" viewBox="0 0 161 34" fill="none" xmlns="http://www.w3.org/2000/svg">
<path d="M6.2163 22.4609L14.2992 14.4256L22.382 22.4609C23.3271 23.4004 23.3271 24.9086 22.382 25.8481L14.2992 33.8834L6.2163 25.8481C5.27122 24.9086 5.27122 23.4004 6.2163 22.4609Z" fill="#231F20"/>
<path d="M14.3141 0.746826L0.54834 14.4316L14.3141 28.1163L28.0799 14.4316L14.3141 0.746826Z" fill="#009B00"/>
<path d="M45.495 14.4056V26.9755H41.9075V14.4056H34.8379V11.6608H52.5822V14.4056H45.495Z" fill="black"/>
<path d="M50.2432 26.9755L57.7349 14.4406H60.6893L68.2865 26.9755H64.8396L63.2569 24.2308H54.9035L53.3208 26.9755H50.2432ZM56.2225 21.9406H62.0083L59.0714 16.7133L56.2225 21.9406Z" fill="black"/>
<path d="M71.452 26.9755V14.4406H74.5471V24.6329H84.4481V26.9755H71.452Z" fill="black"/>
<path d="M87.9125 26.9755V14.4406H101.454V16.6608H91.0252V19.4056H97.0924V21.556H91.0252V24.6329H101.612V26.9755H87.9125Z" fill="black"/>
<path d="M106.044 26.9755V14.4406H108.154L118.864 22.7622V14.4406H121.642V26.9755H119.515L108.84 18.514V26.9755H106.044Z" fill="black"/>
<path d="M138.349 16.7483H130.066V24.5804H138.349V21.9231L141.444 22.5525V24.0385C141.444 25.1748 141.216 25.9615 140.758 26.3811C140.301 26.8007 139.422 27.0105 138.138 27.0105H130.26C128.993 27.0105 128.114 26.8007 127.674 26.3811C127.217 25.9615 126.989 25.1923 126.989 24.0385V17.4126C126.989 16.2762 127.217 15.4895 127.674 15.0874C128.132 14.6678 128.993 14.458 130.277 14.458H138.156C139.457 14.458 140.336 14.6678 140.794 15.0874C141.251 15.507 141.48 16.2762 141.48 17.4126V18.6364L138.384 19.0909V16.7657L138.349 16.7483Z" fill="black"/>
<path d="M146.509 26.9755V14.4406H160.05V16.6608H149.622V19.4056H155.689V21.556H149.622V24.6329H160.209V26.9755H146.509Z" fill="black"/>
</svg>
