<svg width="50" height="50" viewBox="0 0 50 50" fill="none" xmlns="http://www.w3.org/2000/svg">
<path d="M35.4167 41.6667H5.20833C2.3375 41.6667 0 39.3292 0 36.4583V5.20833C0 2.3375 2.3375 0 5.20833 0H21.875C22.3208 0 22.7167 0.283333 22.8604 0.704167L36.4021 40.2875C36.5104 40.6042 36.4583 40.9562 36.2646 41.2292C36.0687 41.5042 35.7542 41.6667 35.4167 41.6667ZM5.20833 2.08333C3.48542 2.08333 2.08333 3.48542 2.08333 5.20833V36.4583C2.08333 38.1812 3.48542 39.5833 5.20833 39.5833H33.9583L21.1312 2.08333H5.20833Z" fill="black"/>
<path d="M44.7917 50H28.125C27.6917 50 27.3021 49.7313 27.15 49.325L24.025 40.9917C23.8229 40.4521 24.0958 39.8521 24.6333 39.65C25.1729 39.45 25.7729 39.7208 25.975 40.2583L28.8479 47.9167H44.7917C46.5146 47.9167 47.9167 46.5146 47.9167 44.7917V13.5417C47.9167 11.8187 46.5146 10.4167 44.7917 10.4167H25C24.425 10.4167 23.9583 9.95 23.9583 9.375C23.9583 8.8 24.425 8.33333 25 8.33333H44.7917C47.6625 8.33333 50 10.6708 50 13.5417V44.7917C50 47.6625 47.6625 50 44.7917 50Z" fill="black"/>
<path d="M28.125 50C27.8812 50 27.6375 49.9146 27.4396 49.7417C27.0062 49.3625 26.9625 48.7042 27.3417 48.2708L34.6333 39.9375C35.0125 39.5021 35.6708 39.4604 36.1042 39.8396C36.5375 40.2187 36.5812 40.8771 36.2021 41.3104L28.9104 49.6437C28.7021 49.8792 28.4146 50 28.125 50Z" fill="black"/>
<path d="M19.7917 29.1667C19.3625 29.1667 18.9625 28.9021 18.8104 28.475L14.5833 16.6396L10.3562 28.475C10.1625 29.0167 9.56458 29.3 9.025 29.1062C8.48333 28.9125 8.2 28.3167 8.39375 27.775L13.6021 13.1917C13.8979 12.3625 15.2687 12.3625 15.5625 13.1917L20.7708 27.775C20.9646 28.3167 20.6833 28.9125 20.1396 29.1062C20.0271 29.1479 19.9083 29.1667 19.7917 29.1667Z" fill="black"/>
<path d="M16.6667 22.9167H12.5C11.925 22.9167 11.4583 22.45 11.4583 21.875C11.4583 21.3 11.925 20.8333 12.5 20.8333H16.6667C17.2417 20.8333 17.7083 21.3 17.7083 21.875C17.7083 22.45 17.2417 22.9167 16.6667 22.9167Z" fill="black"/>
<path d="M44.7917 22.9167H30.2083C29.6333 22.9167 29.1667 22.45 29.1667 21.875C29.1667 21.3 29.6333 20.8333 30.2083 20.8333H44.7917C45.3667 20.8333 45.8333 21.3 45.8333 21.875C45.8333 22.45 45.3667 22.9167 44.7917 22.9167Z" fill="black"/>
<path d="M36.4583 22.9167C35.8833 22.9167 35.4167 22.45 35.4167 21.875V19.7917C35.4167 19.2167 35.8833 18.75 36.4583 18.75C37.0333 18.75 37.5 19.2167 37.5 19.7917V21.875C37.5 22.45 37.0333 22.9167 36.4583 22.9167Z" fill="black"/>
<path d="M33.3333 35.4167C33.0062 35.4167 32.6854 35.2646 32.4833 34.9792C32.15 34.5104 32.2604 33.8604 32.7292 33.5271C37.2896 30.2875 40.625 23.6792 40.625 21.8771C40.625 21.3021 41.0917 20.8354 41.6667 20.8354C42.2417 20.8354 42.7083 21.3021 42.7083 21.8771C42.7083 24.6229 38.6938 31.8458 33.9375 35.2271C33.7542 35.3542 33.5437 35.4167 33.3333 35.4167Z" fill="black"/>
<path d="M41.6667 37.5C41.4146 37.5 41.1625 37.4104 40.9646 37.2271C40.2083 36.5354 33.5521 30.3875 32.3687 27.475C32.1521 26.9417 32.4104 26.3354 32.9417 26.1187C33.4688 25.9042 34.0812 26.1583 34.2979 26.6917C35.15 28.7896 40.4146 33.8979 42.3708 35.6896C42.7958 36.0792 42.8229 36.7354 42.4354 37.1625C42.2292 37.3854 41.9479 37.5 41.6667 37.5Z" fill="black"/>
</svg>
